<svg xmlns="http://www.w3.org/2000/svg" width="20" height="20" viewBox="0 0 20 20" fill="none" >
<path fill-rule="evenodd" clip-rule="evenodd" d="M8.62528 0.682372C9.34091 0.361573 10.1595 0.361573 10.8751 0.682372L19.0409 4.34292C19.1081 4.37121 19.1704 4.40901 19.2259 4.45464C19.2615 4.48385 19.2942 4.51615 19.3236 4.55105C19.4354 4.68376 19.5002 4.85399 19.5002 5.0345V14.9484C19.5036 15.0995 19.4609 15.2477 19.3798 15.3732C19.3222 15.4624 19.2452 15.54 19.1516 15.5992C19.1167 15.6213 19.0798 15.6407 19.0414 15.6569L10.8751 19.3176C10.1595 19.6384 9.34091 19.6384 8.62528 19.3176L0.459072 15.6569C0.420262 15.6406 0.383117 15.621 0.347962 15.5987C0.255151 15.5399 0.178767 15.4629 0.121449 15.3746C0.0397873 15.2488 -0.00317647 15.1001 0.000183103 14.9486V5.0345C0.000183103 4.80088 0.106999 4.59219 0.274458 4.45464C0.330003 4.40902 0.392221 4.37122 0.459426 4.34293L8.62528 0.682372ZM10.2615 2.05114C9.93622 1.90532 9.56415 1.90532 9.23886 2.05114L2.58367 5.0345L9.75018 8.24707L16.9167 5.0345L10.2615 2.05114ZM9.00018 17.8419L1.50018 14.4798V6.19261L9.00018 9.55468V17.8419ZM10.5002 17.8419L18.0002 14.4798V6.19261L10.5002 9.55468V17.8419Z" fill="#724e91"></path>
<path d="M1 4.80823L1.03864 4.8254L9.18189 1.17498C9.70235 0.941673 10.2977 0.941673 10.8181 1.17498L18.9614 4.8254L19 4.80823V14.8082L10 18.3082L1 14.8082V4.80823Z" fill="#724e91" fill-opacity="0.2"></path>
</svg>