<svg xmlns="http://www.w3.org/2000/svg" width="20" height="20" viewBox="0 0 20 20" fill="none" >
<path d="M0.75 2C0.75 1.30964 1.30964 0.75 2 0.75H7C7.69036 0.75 8.25 1.30964 8.25 2V7C8.25 7.69036 7.69036 8.25 7 8.25H2C1.30964 8.25 0.75 7.69036 0.75 7V2ZM0.75 13C0.75 12.3096 1.30964 11.75 2 11.75H7C7.69036 11.75 8.25 12.3096 8.25 13V18C8.25 18.6904 7.69036 19.25 7 19.25H2C1.30964 19.25 0.75 18.6904 0.75 18V13ZM11.75 13C11.75 12.3096 12.3096 11.75 13 11.75H18C18.6904 11.75 19.25 12.3096 19.25 13V18C19.25 18.6904 18.6904 19.25 18 19.25H13C12.3096 19.25 11.75 18.6904 11.75 18V13Z" fill="#74c4ba" fill-opacity="0.2" stroke="#74c4ba" stroke-width="1.5"></path>
<path d="M16.25 1C16.25 0.585786 15.9142 0.25 15.5 0.25C15.0858 0.25 14.75 0.585786 14.75 1V3.75H12C11.5858 3.75 11.25 4.08579 11.25 4.5C11.25 4.91421 11.5858 5.25 12 5.25H14.75V8C14.75 8.41421 15.0858 8.75 15.5 8.75C15.9142 8.75 16.25 8.41421 16.25 8V5.25H19C19.4142 5.25 19.75 4.91421 19.75 4.5C19.75 4.08579 19.4142 3.75 19 3.75H16.25V1Z" fill="#74c4ba"></path>
</svg>