
<svg xmlns="http://www.w3.org/2000/svg" width="20" height="20" viewBox="0 0 20 20" fill="none" >
<rect x="0.75" y="0.75" width="18.5" height="18.5" rx="3.25" fill="#f8c630" fill-opacity="0.2" stroke="#f8c630" stroke-width="1.5"></rect>
<path d="M4.16667 5.08331C4.16667 4.6691 4.50246 4.33331 4.91667 4.33331H14.25C14.6642 4.33331 15 4.6691 15 5.08331C15 5.49753 14.6642 5.83331 14.25 5.83331L4.91667 5.83331C4.50246 5.83331 4.16667 5.49753 4.16667 5.08331Z" fill="#f8c630"></path>
<path d="M4.16667 9.25C4.16667 8.83579 4.50246 8.5 4.91667 8.5L12.5833 8.5C12.9976 8.5 13.3333 8.83579 13.3333 9.25C13.3333 9.66422 12.9976 10 12.5833 10L4.91667 10C4.50246 10 4.16667 9.66421 4.16667 9.25Z" fill="#f8c630"></path>
<path d="M4.91667 12.6666C4.50246 12.6666 4.16667 13.0024 4.16667 13.4166C4.16667 13.8308 4.50246 14.1666 4.91667 14.1666H9.25001C9.66422 14.1666 10 13.8308 10 13.4166C10 13.0024 9.66422 12.6666 9.25001 12.6666H4.91667Z" fill="#f8c630"></path>
</svg>