<svg xmlns="http://www.w3.org/2000/svg" width="20" height="20" viewBox="0 0 20 20" fill="none">
<path d="M15 7.50915L12.5 8.34249V7.50915C12.5 7.17763 12.3683 6.85969 12.1339 6.62527C11.8995 6.39085 11.5815 6.25916 11.25 6.25916H6.25C5.91848 6.25916 5.60054 6.39085 5.36612 6.62527C5.1317 6.85969 5 7.17763 5 7.50915V12.5092C5 12.8407 5.1317 13.1586 5.36612 13.393C5.60054 13.6275 5.91848 13.7592 6.25 13.7592H11.25C11.5815 13.7592 11.8995 13.6275 12.1339 13.393C12.3683 13.1586 12.5 12.8407 12.5 12.5092V11.6758L15 12.5092V7.50915Z" stroke="#f8c630" stroke-width="1.5" stroke-linecap="round" stroke-linejoin="round"></path>
<path d="M5 2.00916H15C16.6569 2.00916 18 3.3523 18 5.00915V15.0092C18 16.666 16.6569 18.0092 15 18.0092H5C3.34315 18.0092 2 16.666 2 15.0092V5.00915C2 3.3523 3.34315 2.00916 5 2.00916Z" fill="none" fill-opacity="0.2" stroke="#f8c630" stroke-width="1.5"></path>
</svg>