<svg xmlns="http://www.w3.org/2000/svg" width="20" height="20" viewBox="0 0 20 20" fill="none" >
<path d="M1.25 8.5C1.25 7.5335 2.0335 6.75 3 6.75H14C14.9665 6.75 15.75 7.5335 15.75 8.5V14C15.75 16.8995 13.3995 19.25 10.5 19.25H6.5C3.60051 19.25 1.25 16.8995 1.25 14V8.5Z" fill="#e54f6d" fill-opacity="0.2" stroke="#e54f6d" stroke-width="1.5"></path>
<path d="M6.25 0.833313C6.25 0.419099 5.91421 0.083313 5.5 0.083313C5.08579 0.083313 4.75 0.419099 4.75 0.833313V3.33331C4.75 3.74753 5.08579 4.08331 5.5 4.08331C5.91421 4.08331 6.25 3.74753 6.25 3.33331V0.833313Z" fill="#e54f6d"></path>
<path d="M9.58331 0.833313C9.58331 0.419099 9.24753 0.083313 8.83331 0.083313C8.4191 0.083313 8.08331 0.419099 8.08331 0.833313V3.33331C8.08331 3.74753 8.4191 4.08331 8.83331 4.08331C9.24753 4.08331 9.58331 3.74753 9.58331 3.33331V0.833313Z" fill="#e54f6d"></path>
<path d="M12.1667 0.083313C12.5809 0.083313 12.9167 0.419099 12.9167 0.833313V3.33331C12.9167 3.74753 12.5809 4.08331 12.1667 4.08331C11.7525 4.08331 11.4167 3.74753 11.4167 3.33331V0.833313C11.4167 0.419099 11.7525 0.083313 12.1667 0.083313Z" fill="#e54f6d"></path>
<path fill-rule="evenodd" clip-rule="evenodd" d="M16 16C16.1693 16 16.3362 15.9895 16.5 15.9691C18.4732 15.723 20 14.0398 20 12C20 9.96019 18.4732 8.277 16.5 8.03095C16.3362 8.01052 16.1693 8 16 8H15V16H16ZM18.5 12C18.5 10.7905 17.6411 9.78164 16.5 9.55001V14.45C17.6411 14.2184 18.5 13.2095 18.5 12Z" fill="#e54f6d"></path>
</svg>