<svg xmlns="http://www.w3.org/2000/svg" width="20" height="20" viewBox="0 0 20 20" fill="none">
<path fill-rule="evenodd" clip-rule="evenodd" d="M5.80083 1.65L6.875 4.375L4.875 7.52083C4.71738 7.83675 4.62846 8.18247 4.6141 8.53524C4.59974 8.888 4.66025 9.23981 4.79167 9.5675C4.79167 9.5675 9.40584 18.75 10.0308 19.375C10.6558 18.75 15.2083 9.5675 15.2083 9.5675C15.3398 9.23981 15.4003 8.888 15.3859 8.53524C15.3715 8.18247 15.2826 7.83675 15.125 7.52083L13.125 4.375L14.2608 1.65C14.3368 1.55875 14.3853 1.44773 14.4005 1.32995C14.4157 1.21216 14.397 1.09249 14.3466 0.984941C14.2962 0.877391 14.2163 0.786416 14.1161 0.72267C14.0159 0.658924 13.8996 0.625045 13.7808 0.625H6.28083C6.16207 0.625045 6.04579 0.658924 5.94559 0.72267C5.84539 0.786416 5.76542 0.877391 5.71506 0.984941C5.66469 1.09249 5.64601 1.21216 5.6612 1.32995C5.67639 1.44773 5.72483 1.55875 5.80083 1.65Z" fill="#724e91" fill-opacity="0.15"></path>
<path fill-rule="evenodd" clip-rule="evenodd" d="M6.21554 1.5L6.88981 3.1857C6.96575 3.37552 7.1496 3.5 7.35405 3.5H12.6459C12.8504 3.5 13.0342 3.37552 13.1102 3.18569L13.7844 1.5H6.21554ZM5.4971 3.74278C5.54249 3.85626 5.59753 3.9639 5.66104 4.06492L3.60878 7.48535C3.23331 8.11112 3.22849 8.89172 3.5962 9.52209L9.13621 19.0192C9.52209 19.6807 10.4779 19.6807 10.8638 19.0192L16.4038 9.52209C16.7715 8.89173 16.7667 8.11112 16.3912 7.48535L14.3389 4.06492C14.4024 3.9639 14.4575 3.85626 14.5029 3.74278L15.4514 1.37139C15.7142 0.714526 15.2304 0 14.523 0H5.47702C4.76956 0 4.2858 0.714527 4.54854 1.37139L5.4971 3.74278ZM7.35405 5H12.6459H13.1507L15.105 8.2571C15.1988 8.41354 15.2 8.60869 15.1081 8.76628L9.99999 17.523L4.89187 8.76628C4.79994 8.60869 4.80115 8.41354 4.89502 8.2571L6.84927 5H7.35405ZM8.58579 7.73569C8.96086 7.36062 9.46957 7.1499 10 7.1499C10.5304 7.1499 11.0391 7.36062 11.4142 7.73569C11.7893 8.11076 12 8.61947 12 9.1499C12 9.68034 11.7893 10.189 11.4142 10.5641C11.2227 10.7556 10.9963 10.9043 10.75 11.004V13.7499C10.75 14.1641 10.4142 14.4999 10 14.4999C9.58579 14.4999 9.25 14.1641 9.25 13.7499V11.004C9.00368 10.9043 8.77731 10.7556 8.58579 10.5641C8.21071 10.189 8 9.68034 8 9.1499C8 8.61947 8.21071 8.11076 8.58579 7.73569ZM10.3536 9.50346C10.2598 9.59722 10.1326 9.6499 10 9.6499C9.86739 9.6499 9.74021 9.59722 9.64645 9.50346C9.55268 9.40969 9.5 9.28251 9.5 9.1499C9.5 9.01729 9.55268 8.89012 9.64645 8.79635C9.74022 8.70258 9.86739 8.6499 10 8.6499C10.1326 8.6499 10.2598 8.70258 10.3536 8.79635C10.4473 8.89012 10.5 9.01729 10.5 9.1499C10.5 9.28251 10.4473 9.40969 10.3536 9.50346Z" fill="#724e91"></path>
</svg>