<svg xmlns="http://www.w3.org/2000/svg" width="21" height="21" viewBox="0 0 21 21" fill="#724e91" >
    <path d="M14.6161 1.44455C15.1043 0.956391 15.8957 0.956391 16.3839 1.44455L19.5659 4.62653C20.054 5.11468 20.054 5.90614 19.5659 6.39429L16.3839 9.57627C15.8957 10.0644 15.1043 10.0644 14.6161 9.57627L11.4341 6.39429C10.946 5.90614 10.946 5.11468 11.4341 4.62653L14.6161 1.44455L14.0963 0.924774L14.6161 1.44455ZM0.75 3C0.75 2.30965 1.30964 1.75 2 1.75H7C7.69036 1.75 8.25 2.30965 8.25 3V8C8.25 8.69036 7.69036 9.25 7 9.25H2C1.30964 9.25 0.75 8.69036 0.75 8V3ZM0.75 14C0.75 13.3096 1.30964 12.75 2 12.75H7C7.69036 12.75 8.25 13.3096 8.25 14V19C8.25 19.6904 7.69036 20.25 7 20.25H2C1.30964 20.25 0.75 19.6904 0.75 19V14ZM11.75 14C11.75 13.3096 12.3096 12.75 13 12.75H18C18.6904 12.75 19.25 13.3096 19.25 14V19C19.25 19.6904 18.6904 20.25 18 20.25H13C12.3096 20.25 11.75 19.6904 11.75 19V14Z" fill="#724e91" fill-opacity="0.2" stroke="#724e91" stroke-width="1.5"></path>
</svg>