<svg xmlns="http://www.w3.org/2000/svg" width="20" height="20" viewBox="0 0 20 20" >
<path d="M2.5 0.75H6.5C7.4665 0.75 8.25 1.5335 8.25 2.5V6.5C8.25 7.4665 7.4665 8.25 6.5 8.25H2.5C1.5335 8.25 0.75 7.4665 0.75 6.5V2.5C0.75 1.5335 1.5335 0.75 2.5 0.75ZM13.5 0.75H17.5C18.4665 0.75 19.25 1.5335 19.25 2.5V6.5C19.25 7.4665 18.4665 8.25 17.5 8.25H13.5C12.5335 8.25 11.75 7.4665 11.75 6.5V2.5C11.75 1.5335 12.5335 0.75 13.5 0.75ZM13.5 11.75H17.5C18.4665 11.75 19.25 12.5335 19.25 13.5V17.5C19.25 18.4665 18.4665 19.25 17.5 19.25H13.5C12.5335 19.25 11.75 18.4665 11.75 17.5V13.5C11.75 12.5335 12.5335 11.75 13.5 11.75ZM2.5 11.75H6.5C7.4665 11.75 8.25 12.5335 8.25 13.5V17.5C8.25 18.4665 7.4665 19.25 6.5 19.25H2.5C1.5335 19.25 0.75 18.4665 0.75 17.5V13.5C0.75 12.5335 1.5335 11.75 2.5 11.75Z"
 fill="#724e91" fill-opacity="0.2" stroke="#724e91" stroke-width="1.5">
 </path>
</svg>