<svg xmlns="http://www.w3.org/2000/svg" width="18" height="18" viewBox="0 0 18 18" fill="#74c4ba" >
<path d="M0.760205 8.3167C0.692108 8.72528 0.968123 9.1117 1.3767 9.1798C1.78528 9.24789 2.1717 8.97188 2.2398 8.5633L0.760205 8.3167ZM6.46 4.1L6.35393 3.35754L6.35393 3.35754L6.46 4.1ZM17.636 1.3975C17.8555 1.04625 17.7488 0.583534 17.3975 0.364001C17.0462 0.144469 16.5835 0.251248 16.364 0.602501L17.636 1.3975ZM2.6002 13.3786L3.26145 13.7325L3.26145 13.7325L2.6002 13.3786ZM10.8001 11.05C11.2143 11.05 11.5501 10.7142 11.5501 10.3C11.5501 9.88579 11.2143 9.55 10.8001 9.55V11.05ZM1.5 8.44C2.2398 8.5633 2.23973 8.56369 2.23967 8.56406C2.23965 8.56416 2.23959 8.56452 2.23955 8.56474C2.23948 8.56516 2.23942 8.56553 2.23937 8.56584C2.23926 8.56647 2.23919 8.56689 2.23915 8.56708C2.23908 8.56748 2.23916 8.56702 2.2394 8.56574C2.23988 8.56316 2.24099 8.55727 2.24283 8.54828C2.24651 8.53028 2.25307 8.49993 2.26323 8.45883C2.28357 8.3765 2.31809 8.25191 2.37228 8.09768C2.48109 7.78799 2.66639 7.36673 2.96914 6.92941C3.56332 6.07115 4.62831 5.11928 6.56607 4.84246L6.35393 3.35754C3.95169 3.70072 2.53668 4.91885 1.73586 6.07559C1.34111 6.64577 1.10016 7.19326 0.957092 7.60045C0.885345 7.80465 0.837528 7.97553 0.807009 8.09906C0.791733 8.16089 0.78074 8.21107 0.773218 8.24786C0.769456 8.26627 0.766558 8.28135 0.764423 8.29288C0.763356 8.29865 0.762479 8.30354 0.76178 8.30752C0.761431 8.30951 0.761126 8.31127 0.760864 8.3128C0.760733 8.31357 0.760612 8.31427 0.760503 8.31492C0.760448 8.31525 0.760373 8.31569 0.760346 8.31586C0.760274 8.31629 0.760205 8.3167 1.5 8.44ZM6.56607 4.84246C7.57053 4.69897 8.51421 4.73293 9.44844 4.79966C10.3572 4.86457 11.3189 4.9681 12.2291 4.92673C13.1673 4.88408 14.1111 4.68878 15.0403 4.1335C15.9638 3.58169 16.817 2.70787 17.636 1.3975L16.364 0.602501C15.633 1.77213 14.9362 2.44831 14.2709 2.84588C13.6114 3.23997 12.9277 3.39342 12.1609 3.42827C11.3661 3.4644 10.5453 3.37418 9.55531 3.30347C8.59079 3.23457 7.51947 3.19103 6.35393 3.35754L6.56607 4.84246ZM5.14106 4.37183C5.73972 5.91126 6.30914 8.38787 6.44475 10.6859L7.94214 10.5975C7.79793 8.15371 7.19797 5.5225 6.53906 3.82817L5.14106 4.37183ZM6.44475 10.6859C6.53354 12.1906 6.43052 13.5336 6.08761 14.4692C5.9185 14.9307 5.70693 15.2489 5.47375 15.4482C5.25397 15.636 4.97943 15.75 4.60006 15.75V17.25C5.3231 17.25 5.94669 17.0172 6.44832 16.5885C6.93653 16.1712 7.26962 15.6031 7.496 14.9854C7.94408 13.7629 8.03533 12.1768 7.94214 10.5975L6.44475 10.6859ZM4.60006 15.75C3.58083 15.75 3.25531 15.368 3.13436 15.0743C2.97657 14.6911 3.03884 14.1484 3.26145 13.7325L1.93896 13.0247C1.56135 13.7302 1.37795 14.7483 1.74734 15.6454C2.15357 16.632 3.1281 17.25 4.60006 17.25V15.75ZM3.26145 13.7325C3.78686 12.7509 5.11165 11.845 7.3475 11.3757L7.03939 9.90771C4.61144 10.4173 2.76728 11.4771 1.93896 13.0247L3.26145 13.7325ZM7.3475 11.3757C8.34386 11.1666 9.49864 11.05 10.8001 11.05V9.55C9.41122 9.55 8.15172 9.67425 7.03939 9.90771L7.3475 11.3757Z"></path>
</svg>