
<svg xmlns="http://www.w3.org/2000/svg" width="20" height="21" viewBox="0 0 20 21">
<path d="M13.4842 15.5185C11.8769 16.8972 10.4552 17.9485 10 18.279C9.54459 17.9483 8.12304 16.897 6.51599 15.5185C4.62061 13.8926 2.5424 11.8742 1.4452 10.0758L1.44176 10.07L1.43651 10.0611C0.987839 9.31334 0.75 8.45358 0.75 7.57322C0.75 4.91104 2.90591 2.75 5.54681 2.75C7.07683 2.75 8.49854 3.48017 9.39693 4.69529L10 5.51098L10.6031 4.69529C11.5014 3.48018 12.9234 2.75 14.4532 2.75C17.0941 2.75 19.25 4.91104 19.25 7.57322C19.25 8.45358 19.0122 9.31334 18.5635 10.0611L18.5581 10.0701L18.556 10.0738C17.4592 11.8727 15.3803 13.892 13.4842 15.5185Z"
 fill="#e54f6d" fill-opacity="0.2" stroke="#e54f6d" stroke-width="1.5"></path>
</svg>