

<svg xmlns="http://www.w3.org/2000/svg" width="20" height="20" viewBox="0 0 20 20" fill="none">
<path d="M0.75 2.5C0.75 1.5335 1.5335 0.75 2.5 0.75H8.5C9.4665 0.75 10.25 1.5335 10.25 2.5V8.5C10.25 9.4665 9.4665 10.25 8.5 10.25H2.5C1.5335 10.25 0.75 9.4665 0.75 8.5V2.5ZM13.75 2.5C13.75 1.5335 14.5335 0.75 15.5 0.75H17.5C18.4665 0.75 19.25 1.5335 19.25 2.5V8.5C19.25 9.4665 18.4665 10.25 17.5 10.25H15.5C14.5335 10.25 13.75 9.4665 13.75 8.5V2.5ZM9.75 15.5C9.75 14.5335 10.5335 13.75 11.5 13.75H17.5C18.4665 13.75 19.25 14.5335 19.25 15.5V17.5C19.25 18.4665 18.4665 19.25 17.5 19.25H11.5C10.5335 19.25 9.75 18.4665 9.75 17.5V15.5ZM0.75 15.5C0.75 14.5335 1.5335 13.75 2.5 13.75H4.5C5.4665 13.75 6.25 14.5335 6.25 15.5V17.5C6.25 18.4665 5.4665 19.25 4.5 19.25H2.5C1.5335 19.25 0.75 18.4665 0.75 17.5V15.5Z" fill="#724e91" fill-opacity="0.2" stroke="#724e91" stroke-width="1.5"></path>
</svg>