<svg xmlns="http://www.w3.org/2000/svg" width="20" height="20" viewBox="0 0 20 20" fill="none">
<path d="M14.25 10C14.25 12.3472 12.3472 14.25 10 14.25C7.65279 14.25 5.75 12.3472 5.75 10C5.75 7.65279 7.65279 5.75 10 5.75C12.3472 5.75 14.25 7.65279 14.25 10ZM5.25 17C5.25 18.2426 4.24264 19.25 3 19.25C1.75736 19.25 0.75 18.2426 0.75 17C0.75 15.7574 1.75736 14.75 3 14.75C4.24264 14.75 5.25 15.7574 5.25 17ZM5.25 3C5.25 4.24264 4.24264 5.25 3 5.25C1.75736 5.25 0.75 4.24264 0.75 3C0.75 1.75736 1.75736 0.75 3 0.75C4.24264 0.75 5.25 1.75736 5.25 3ZM19.25 17C19.25 18.2426 18.2426 19.25 17 19.25C15.7574 19.25 14.75 18.2426 14.75 17C14.75 15.7574 15.7574 14.75 17 14.75C18.2426 14.75 19.25 15.7574 19.25 17ZM19.25 3C19.25 4.24264 18.2426 5.25 17 5.25C15.7574 5.25 14.75 4.24264 14.75 3C14.75 1.75736 15.7574 0.75 17 0.75C18.2426 0.75 19.25 1.75736 19.25 3Z" fill="#724e91" fill-opacity="0.2" stroke="#724e91" stroke-width="1.5"></path>
</svg>