<svg xmlns="http://www.w3.org/2000/svg" width="24" height="24" viewBox="0 0 24 24" fill="#74c4ba">
<path fill-rule="evenodd" clip-rule="evenodd" d="M0.292893 12.3625L11.6066 23.6762C11.9971 24.0667 12.6303 24.0667 13.0208 23.6762L23.6762 13.0208C23.8707 12.8263 23.9765 12.5602 23.9687 12.2851L24 1.28571C23.9849 0.755822 23.2132 0.0151391 22.6834 0L11.6839 0.000408484C11.4089 -0.00744935 11.1428 0.098349 10.9483 0.292893L0.292893 10.9483C-0.0976312 11.3388 -0.0976309 11.9719 0.292893 12.3625ZM20.0919 3.87719C20.4824 4.26771 20.4824 4.90088 20.0919 5.2914C19.7014 5.68192 19.0682 5.68192 18.6777 5.2914C18.2871 4.90087 18.2871 4.26771 18.6777 3.87719C19.0682 3.48666 19.7014 3.48666 20.0919 3.87719ZM12.3249 6.74473C11.547 9.28963 9.79622 10.8869 7.32482 11.6549C9.79627 12.4223 11.547 14.0203 12.3249 16.5654C13.1027 14.0203 14.8534 12.4223 17.3248 11.6549C14.8534 10.8869 13.1027 9.28961 12.3249 6.74473Z"></path>
</svg>