<svg xmlns="http://www.w3.org/2000/svg" width="20" height="20" viewBox="0 0 20 20" fill="none" >
<g clip-path="url(#clip0_11298_16616)">
<path fill-rule="evenodd" clip-rule="evenodd" d="M3.81932 8.99318C3.17466 8.34852 2.8125 7.47418 2.8125 6.5625C2.8125 5.65082 3.17466 4.77648 3.81932 4.13182C4.46398 3.48716 5.33832 3.125 6.25 3.125C7.16168 3.125 8.03602 3.48716 8.68068 4.13182C9.32534 4.77648 9.6875 5.65082 9.6875 6.5625C9.6875 7.47418 9.32534 8.34852 8.68068 8.99318C8.03602 9.63784 7.16168 10 6.25 10C5.33832 10 4.46398 9.63784 3.81932 8.99318ZM12.7838 10.4262C12.2563 9.89879 11.96 9.18342 11.96 8.4375C11.96 7.69158 12.2563 6.97621 12.7838 6.44876C13.3112 5.92132 14.0266 5.625 14.7725 5.625C15.5184 5.625 16.2338 5.92132 16.7612 6.44876C17.2887 6.97621 17.585 7.69158 17.585 8.4375C17.585 9.18342 17.2887 9.89879 16.7612 10.4262C16.2338 10.9537 15.5184 11.25 14.7725 11.25C14.0266 11.25 13.3112 10.9537 12.7838 10.4262Z" fill="#74c4ba" fill-opacity="0.15"></path>
<path fill-rule="evenodd" clip-rule="evenodd" d="M3.28899 3.60149C4.0743 2.81618 5.13941 2.375 6.25 2.375C7.36059 2.375 8.4257 2.81618 9.21101 3.60149C9.99632 4.3868 10.4375 5.45191 10.4375 6.5625C10.4375 7.67309 9.99632 8.7382 9.21101 9.52351C8.69482 10.0397 8.05774 10.4072 7.36632 10.5985C8.64245 10.8254 9.82874 11.4381 10.7578 12.3672C11.9534 13.5627 12.625 15.1842 12.625 16.875C12.625 17.2892 12.2892 17.625 11.875 17.625C11.4608 17.625 11.125 17.2892 11.125 16.875C11.125 15.5821 10.6114 14.3421 9.69715 13.4279C8.78291 12.5136 7.54293 12 6.25 12C4.95707 12 3.71709 12.5136 2.80285 13.4279C1.88861 14.3421 1.375 15.5821 1.375 16.875C1.375 17.2892 1.03921 17.625 0.625 17.625C0.210786 17.625 -0.125 17.2892 -0.125 16.875C-0.125 15.1842 0.54665 13.5627 1.74219 12.3672C2.67126 11.4381 3.85755 10.8254 5.13368 10.5985C4.44226 10.4072 3.80518 10.0397 3.28899 9.52351C2.50368 8.7382 2.0625 7.67309 2.0625 6.5625C2.0625 5.45191 2.50368 4.3868 3.28899 3.60149ZM6.25 3.875C5.53723 3.875 4.85365 4.15815 4.34965 4.66215C3.84565 5.16615 3.5625 5.84973 3.5625 6.5625C3.5625 7.27527 3.84565 7.95885 4.34965 8.46285C4.85365 8.96685 5.53723 9.25 6.25 9.25C6.96277 9.25 7.64635 8.96685 8.15035 8.46285C8.65435 7.95885 8.9375 7.27527 8.9375 6.5625C8.9375 5.84973 8.65435 5.16615 8.15035 4.66215C7.64635 4.15815 6.96277 3.875 6.25 3.875ZM12.2534 5.91843C12.9215 5.25033 13.8277 4.875 14.7725 4.875C15.7173 4.875 16.6235 5.25033 17.2916 5.91843C17.9597 6.58653 18.335 7.49267 18.335 8.4375C18.335 9.38233 17.9597 10.2885 17.2916 10.9566C16.9686 11.2796 16.5899 11.5341 16.1782 11.7109C16.7677 11.8716 17.3271 12.1325 17.8314 12.4839C18.539 12.9769 19.1171 13.6336 19.5164 14.398C19.9158 15.1625 20.1245 16.0121 20.125 16.8745C20.1252 17.2887 19.7896 17.6247 19.3754 17.6249C18.9612 17.6251 18.6252 17.2895 18.625 16.8753C18.6247 16.2545 18.4744 15.6429 18.1869 15.0925C17.8994 14.5422 17.4833 14.0695 16.9739 13.7146C16.4645 13.3596 15.8769 13.133 15.2611 13.0539C14.6452 12.9748 14.0194 13.0456 13.4369 13.2603C13.0482 13.4036 12.617 13.2046 12.4738 12.816C12.3305 12.4273 12.5295 11.9961 12.9181 11.8529C13.0652 11.7987 13.2143 11.7511 13.3649 11.7101C12.9539 11.5333 12.5759 11.2791 12.2534 10.9566C11.5853 10.2885 11.21 9.38233 11.21 8.4375C11.21 7.49267 11.5853 6.58653 12.2534 5.91843ZM14.7725 6.375C14.2255 6.375 13.7009 6.5923 13.3141 6.97909C12.9273 7.36589 12.71 7.89049 12.71 8.4375C12.71 8.98451 12.9273 9.50911 13.3141 9.89591C13.7009 10.2827 14.2255 10.5 14.7725 10.5C15.3195 10.5 15.8441 10.2827 16.2309 9.89591C16.6177 9.50911 16.835 8.98451 16.835 8.4375C16.835 7.89049 16.6177 7.36589 16.2309 6.97909C15.8441 6.5923 15.3195 6.375 14.7725 6.375Z" fill="#74c4ba"></path>
</g>
<defs>
<clipPath id="clip0_11298_16616">
<rect width="20" height="20" fill="white"></rect>
</clipPath>
</defs>
</svg>