<svg xmlns="http://www.w3.org/2000/svg" width="20" height="20" viewBox="0 0 20 20" fill="none">
<rect x="0.75" y="0.75" width="18.5" height="18.5" rx="3.25" fill="#e54f6d" fill-opacity="0.2" stroke="#e54f6d" stroke-width="1.5"></rect>
<path fill-rule="evenodd" clip-rule="evenodd" d="M4 5C4.55228 5 5 4.55228 5 4C5 3.44772 4.55228 3 4 3C3.44772 3 3 3.44772 3 4C3 4.55228 3.44772 5 4 5ZM0 6.25V7.75H20V6.25H0ZM8 4C8 4.55228 7.55228 5 7 5C6.44772 5 6 4.55228 6 4C6 3.44772 6.44772 3 7 3C7.55228 3 8 3.44772 8 4ZM10 5C10.5523 5 11 4.55228 11 4C11 3.44772 10.5523 3 10 3C9.44771 3 9 3.44772 9 4C9 4.55228 9.44771 5 10 5Z" fill="#e54f6d"></path>
</svg>