
<svg xmlns="http://www.w3.org/2000/svg" width="20" height="21" viewBox="0 0 20 21" fill="none" >
<rect x="0.75" y="2.58331" width="18.5" height="16.8333" rx="3.25" fill="#724e91" fill-opacity="0.2" stroke="#724e91" stroke-width="1.5"></rect>
<path fill-rule="evenodd" clip-rule="evenodd" d="M5 0.25C5.41421 0.25 5.75 0.585786 5.75 1V5C5.75 5.41421 5.41421 5.75 5 5.75C4.58579 5.75 4.25 5.41421 4.25 5V1C4.25 0.585786 4.58579 0.25 5 0.25ZM15 0.25C15.4142 0.25 15.75 0.585786 15.75 1V5C15.75 5.41421 15.4142 5.75 15 5.75C14.5858 5.75 14.25 5.41421 14.25 5V1C14.25 0.585786 14.5858 0.25 15 0.25ZM12.8333 12.5H13.8333C14.1095 12.5 14.3333 12.7239 14.3333 13V14C14.3333 14.2761 14.1095 14.5 13.8333 14.5H12.8333C12.5572 14.5 12.3333 14.2761 12.3333 14V13C12.3333 12.7239 12.5572 12.5 12.8333 12.5ZM10.8333 13C10.8333 11.8954 11.7288 11 12.8333 11H13.8333C14.9379 11 15.8333 11.8954 15.8333 13V14C15.8333 15.1046 14.9379 16 13.8333 16H12.8333C11.7288 16 10.8333 15.1046 10.8333 14V13Z" fill="#724e91"></path>
</svg>